<svg id="Layer_1" data-name="Layer 1" xmlns="http://www.w3.org/2000/svg" viewBox="0 0 430.87 150.24"><defs><style>.cls-1{fill:#fff;}.cls-2{fill:none;stroke:#003c68;stroke-miterlimit:10;stroke-width:0.5px;}.cls-3,.cls-6{fill:#003c68;}.cls-4{fill:#e6f2fc;}.cls-5{fill:#00abe2;}.cls-6{font-size:3.8px;font-family:Futura-Medium, Futura;font-weight:500;}.cls-7{letter-spacing:-0.02em;}.cls-8{letter-spacing:-0.06em;}.cls-9{letter-spacing:0.04em;}.cls-10{letter-spacing:-0.01em;}.cls-11{letter-spacing:-0.03em;}</style></defs><rect class="cls-1" width="430.87" height="150.24"/><rect class="cls-2" x="11.34" y="51.02" width="408.19" height="87.87" rx="7.09"/><path class="cls-3" d="M11.34,100H180a7.09,7.09,0,0,1,7.09,7.09v0a7.09,7.09,0,0,1-7.09,7.09H11.34a0,0,0,0,1,0,0V100A0,0,0,0,1,11.34,100Z"/><rect class="cls-3" x="11.34" y="51.02" width="408.19" height="14.17" rx="7.09"/><path class="cls-4" d="M294.8,100H430.87a0,0,0,0,1,0,0v50.26a0,0,0,0,1,0,0H289.13a0,0,0,0,1,0,0V105.65A5.67,5.67,0,0,1,294.8,100Z"/><path class="cls-1" d="M21.34,104.2h.87v4.89h2.63v.75h-3.5Z"/><path class="cls-1" d="M25.21,107.79h0a2,2,0,1,1,3.89,0h0a2,2,0,1,1-3.89,0Zm3,0h0c0-.9-.43-1.42-1.09-1.42s-1.08.52-1.08,1.42h0c0,.91.43,1.43,1.09,1.43S28.24,108.69,28.24,107.79Z"/><path class="cls-1" d="M30,108.76V106.4h-.59v-.67H30v-1.07h.86v1.07h.77v.67h-.77v2.31c0,.42.19.54.54.54l.23,0v.66a4.11,4.11,0,0,1-.43,0C30.39,109.92,30,109.58,30,108.76Z"/><path class="cls-1" d="M32,107.8h0a1.91,1.91,0,0,1,1.9-2.15,1.85,1.85,0,0,1,1.86,2.07V108H32.89A1.09,1.09,0,0,0,34,109.23a.94.94,0,0,0,.94-.57v0h.8v.05A1.67,1.67,0,0,1,34,109.92,1.89,1.89,0,0,1,32,107.8Zm.86-.4H35c-.07-.71-.47-1.06-1-1.06A1,1,0,0,0,32.9,107.4Z"/><path class="cls-1" d="M41,109.84l.75-3.52H43c.58,0,1,.31,1,.77a1,1,0,0,1-.78.91h0a.71.71,0,0,1,.61.71,1.19,1.19,0,0,1-1.33,1.12Zm1.49-.47c.49,0,.82-.27.82-.64s-.22-.49-.67-.49h-.75l-.25,1.13Zm-.51-1.57h.68c.49,0,.83-.25.83-.6s-.22-.43-.63-.43h-.66Z"/><path class="cls-1" d="M44.15,109.17c0-.51.4-.81,1.07-.84l.73,0,0-.16a.45.45,0,0,0,0-.11c0-.23-.16-.37-.47-.37A.5.5,0,0,0,45,108h-.53a1.05,1.05,0,0,1,1.12-.82c.58,0,.95.31.95.75a1.48,1.48,0,0,1,0,.22l-.35,1.66h-.51l.07-.31h0a1,1,0,0,1-.76.35A.74.74,0,0,1,44.15,109.17Zm1.67-.23,0-.26-.64,0c-.35,0-.56.16-.56.39s.18.35.45.35A.71.71,0,0,0,45.82,108.94Z"/><path class="cls-1" d="M47,109.32c0-.06,0-.14,0-.23l.3-1.37h-.38l.09-.44h.38l.13-.63H48l-.14.63h.54l-.09.44h-.54L47.52,109a.71.71,0,0,0,0,.2c0,.18.12.25.32.25H48l-.09.43-.28,0C47.23,109.86,47,109.69,47,109.32Z"/><path class="cls-1" d="M50.79,108.13v0h-.5a.51.51,0,0,0-.56-.49c-.47,0-.8.44-.8,1.07,0,.42.23.67.57.67a.66.66,0,0,0,.64-.45h.5a1.16,1.16,0,0,1-1.15.92,1,1,0,0,1-1.09-1.12,1.41,1.41,0,0,1,1.35-1.56A.94.94,0,0,1,50.79,108.13Z"/><path class="cls-1" d="M51.59,106.32h.53l-.29,1.34h0a.94.94,0,0,1,.83-.44.76.76,0,0,1,.81.75,1.71,1.71,0,0,1,0,.31l-.34,1.56h-.52l.32-1.47a1,1,0,0,0,0-.23.46.46,0,0,0-.52-.46.76.76,0,0,0-.73.62l-.32,1.54h-.53Z"/><path class="cls-1" d="M54.86,109.84l.75-3.52h.56l-.75,3.52Z"/><path class="cls-1" d="M57.93,106.32a1.33,1.33,0,0,1,1.47,1.41,1.91,1.91,0,0,1-1.89,2.11H56.08l.74-3.52Zm-1.2,3h.73a1.41,1.41,0,0,0,1.38-1.55.9.9,0,0,0-1-1h-.54Z"/><polygon class="cls-3" points="11.73 27.22 11.73 11.34 22.7 21.33 22.66 12.83 25.73 12.83 25.73 28.14 14.92 18.63 14.95 27.22 11.73 27.22"/><path class="cls-3" d="M43.47,20.13a8,8,0,1,1-7.95-8A8,8,0,0,1,43.47,20.13Zm-7.95-5a5,5,0,1,0,5,5A5,5,0,0,0,35.52,15.08Z"/><path class="cls-5" d="M39.47,20.13a4,4,0,1,1-3.95-3.95A4,4,0,0,1,39.47,20.13Z"/><path class="cls-5" d="M78.26,19.3a2.63,2.63,0,1,1-2.63-2.63A2.63,2.63,0,0,1,78.26,19.3Z"/><polygon class="cls-3" points="42.6 12.65 50.88 27.96 59.14 12.65 55.28 12.65 50.87 21.09 46.47 12.65 42.6 12.65"/><path class="cls-3" d="M95.45,18.92H106.6l-3.18,5.2s4.3-.12,4.3,4.74c0,4.66-5.89,4.45-5.89,4.45H95.1l.75-3.22,6.22,0a2,2,0,0,0,2-1.95c0-1.65-2.37-1.65-2.37-1.65l-3.7,0,2.62-4.65-5.14,0Z"/><polygon class="cls-3" points="71.75 27.19 63.47 11.88 55.21 27.19 59.07 27.19 63.48 18.75 67.88 27.19 71.75 27.19"/><polygon class="cls-3" points="97.24 27.19 88.95 11.88 80.7 27.19 84.56 27.19 88.97 18.75 93.36 27.19 97.24 27.19"/><text class="cls-6" transform="translate(11.34 33.33)"><tspan class="cls-7">L</tspan><tspan x="1.6" y="0">U</tspan><tspan class="cls-8" x="4.4" y="0">V</tspan><tspan x="6.73" y="0" xml:space="preserve">AS    BU</tspan><tspan class="cls-9" x="21.49" y="0">L</tspan><tspan x="23.33" y="0" xml:space="preserve">AS    EM</tspan><tspan class="cls-10" x="38.83" y="0">B</tspan><tspan x="41.04" y="0">A</tspan><tspan class="cls-9" x="43.85" y="0">L</tspan><tspan class="cls-11" x="45.69" y="0">A</tspan><tspan x="48.37" y="0">GENS FLEXÍVEIS</tspan></text><path class="cls-5" d="M26.45,31.87a1,1,0,1,1-1-1A1,1,0,0,1,26.45,31.87Z"/><path class="cls-5" d="M43.06,31.87a1,1,0,1,1-1-1A1,1,0,0,1,43.06,31.87Z"/><path class="cls-1" d="M21.34,55.25h2.1a1.77,1.77,0,0,1,1.87,1.85h0A1.78,1.78,0,0,1,23.44,59H22.21v1.93h-.87Zm.87.74v2.24h1a1.06,1.06,0,0,0,1.2-1.12h0A1.06,1.06,0,0,0,23.22,56Z"/><path class="cls-1" d="M26,56.78h.81v.68h0a1,1,0,0,1,1-.76,1.72,1.72,0,0,1,.29,0v.79a1.07,1.07,0,0,0-.38-.05.84.84,0,0,0-.87.94v2.48H26Z"/><path class="cls-1" d="M28.24,58.83h0a2,2,0,1,1,3.9,0h0a2,2,0,1,1-3.9,0Zm3,0h0c0-.89-.43-1.41-1.09-1.41s-1.08.52-1.08,1.41h0c0,.91.43,1.43,1.09,1.43S31.27,59.74,31.27,58.83Z"/><path class="cls-1" d="M32.6,58.83h0c0-1.31.68-2.13,1.72-2.13a1.38,1.38,0,0,1,1.29.78h0V55.25h.85v5.64h-.85v-.7h0a1.39,1.39,0,0,1-1.29.78C33.28,61,32.6,60.14,32.6,58.83Zm3,0h0c0-.85-.45-1.41-1.08-1.41s-1.08.54-1.08,1.41h0c0,.88.41,1.41,1.08,1.41S35.63,59.69,35.63,58.83Z"/><path class="cls-1" d="M37.32,59.44V56.78h.84v2.5c0,.62.29,1,.88,1a1,1,0,0,0,1-1.06v-2.4h.85v4.11H40v-.62h0a1.44,1.44,0,0,1-2.68-.83Z"/><path class="cls-1" d="M41.93,59.8V57.45h-.59v-.67h.59V55.71h.87v1.07h.77v.67H42.8v2.3c0,.42.18.55.54.55l.23,0v.65a2.33,2.33,0,0,1-.43,0C42.32,61,41.93,60.62,41.93,59.8Z"/><path class="cls-1" d="M44,58.83h0a2,2,0,1,1,3.9,0h0a2,2,0,1,1-3.9,0Zm3,0h0c0-.89-.43-1.41-1.09-1.41s-1.08.52-1.08,1.41h0c0,.91.43,1.43,1.09,1.43S47,59.74,47,58.83Z"/><path class="cls-1" d="M55,57.36a1,1,0,0,1,1.07,1,1.34,1.34,0,0,1-1.47,1.35h-.79l-.25,1.19H53l.75-3.53Zm-1.09,1.86h.67a.81.81,0,0,0,.92-.82c0-.35-.25-.55-.65-.55h-.64Z"/><path class="cls-1" d="M56.55,58.31h.51l-.08.35h0a.81.81,0,0,1,.7-.39.71.71,0,0,1,.3.06l-.1.51a1,1,0,0,0-.34-.06c-.4,0-.62.22-.72.66l-.31,1.45H56Z"/><path class="cls-1" d="M60.38,59.4A1.42,1.42,0,0,1,59,60.93a1.05,1.05,0,0,1-1.11-1.14,1.42,1.42,0,0,1,1.35-1.53A1.05,1.05,0,0,1,60.38,59.4Zm-.53,0c0-.42-.23-.7-.59-.7s-.81.46-.81,1.06c0,.42.23.69.58.69S59.85,60,59.85,59.42Z"/><path class="cls-1" d="M60.68,59.85A1.42,1.42,0,0,1,62,58.27a.79.79,0,0,1,.8.54h0l.31-1.45h.52l-.75,3.53h-.52l.09-.4h0a1,1,0,0,1-.81.44C61,60.93,60.68,60.51,60.68,59.85Zm1.94-.47a.59.59,0,0,0-.61-.64c-.45,0-.8.44-.8,1.06,0,.41.22.67.57.67S62.62,60,62.62,59.38Z"/><path class="cls-1" d="M65.64,60.89h-.5l.08-.38h0a1,1,0,0,1-.84.42.72.72,0,0,1-.79-.72,1.47,1.47,0,0,1,0-.36l.32-1.54h.52l-.31,1.46c0,.08,0,.19,0,.25,0,.3.16.44.48.44a.75.75,0,0,0,.74-.62l.32-1.53h.53Z"/><path class="cls-1" d="M68.71,59.17v0h-.5a.5.5,0,0,0-.56-.49c-.47,0-.8.44-.8,1.06,0,.42.23.68.57.68a.66.66,0,0,0,.64-.45h.5a1.16,1.16,0,0,1-1.15.91,1,1,0,0,1-1.09-1.12,1.41,1.41,0,0,1,1.35-1.55A.94.94,0,0,1,68.71,59.17Z"/><path class="cls-1" d="M69.08,60.37a1.12,1.12,0,0,1,0-.24l.3-1.36H69l.08-.44h.39l.13-.63h.52l-.13.63h.54l-.09.44h-.54L69.66,60a.88.88,0,0,0,0,.2c0,.18.12.26.33.26l.17,0-.08.43a1.36,1.36,0,0,1-.29,0C69.37,60.91,69.08,60.73,69.08,60.37Z"/><polyline class="cls-3" points="430.87 150.24 430.87 121.89 402.52 150.24"/><rect class="cls-3" x="130.39" y="11.34" width="289.13" height="14.17" rx="7.09"/><path class="cls-1" d="M140.39,18.42h0c0-1.79,1-2.91,2.62-2.91a2.26,2.26,0,0,1,2.35,1.88v0h-.87l0-.08A1.42,1.42,0,0,0,143,16.29c-1,0-1.72.82-1.72,2.13h0c0,1.31.68,2.14,1.72,2.14a1.44,1.44,0,0,0,1.48-1.1v0h.87v0A2.24,2.24,0,0,1,143,21.34C141.41,21.34,140.39,20.21,140.39,18.42Z"/><path class="cls-1" d="M146.09,15.61h.84v5.63h-.84Z"/><path class="cls-1" d="M147.77,16a.49.49,0,1,1,.49.48A.48.48,0,0,1,147.77,16Zm.07,1.11h.84v4.11h-.84Z"/><path class="cls-1" d="M149.37,19.2h0a1.91,1.91,0,0,1,1.89-2.14,1.84,1.84,0,0,1,1.86,2.06v.28h-2.91c0,.78.44,1.23,1.11,1.23a.92.92,0,0,0,.94-.56v0h.8v0a1.7,1.7,0,0,1-1.76,1.25A1.89,1.89,0,0,1,149.37,19.2Zm.85-.39h2.07c-.07-.71-.47-1.06-1-1.06A1.06,1.06,0,0,0,150.22,18.81Z"/><path class="cls-1" d="M153.77,17.13h.85v.63h0a1.31,1.31,0,0,1,1.25-.7,1.36,1.36,0,0,1,1.43,1.52v2.66h-.85v-2.5c0-.61-.29-1-.88-1a1,1,0,0,0-1,1.07v2.39h-.85Z"/><path class="cls-1" d="M158.37,20.16V17.81h-.59v-.68h.59V16.06h.86v1.07H160v.68h-.77v2.3c0,.42.19.54.54.54H160v.65a2.33,2.33,0,0,1-.43,0C158.76,21.33,158.37,21,158.37,20.16Z"/><path class="cls-1" d="M160.41,19.2h0a1.91,1.91,0,0,1,1.9-2.14,1.84,1.84,0,0,1,1.86,2.06v.28h-2.91a1.09,1.09,0,0,0,1.11,1.23.93.93,0,0,0,.94-.56v0h.8v0a1.68,1.68,0,0,1-1.76,1.25A1.89,1.89,0,0,1,160.41,19.2Zm.86-.39h2.06c-.07-.71-.47-1.06-1-1.06A1,1,0,0,0,161.27,18.81Z"/><path class="cls-1" d="M172.24,18.86a.78.78,0,0,0-.85-.69c-.75,0-1.26.67-1.26,1.59a.9.9,0,0,0,.92,1,1,1,0,0,0,1-.65h.54A1.53,1.53,0,0,1,171,21.3a1.4,1.4,0,0,1-1.47-1.52,1.93,1.93,0,0,1,1.85-2.12,1.27,1.27,0,0,1,1.38,1.18v.08h-.55Z"/><path class="cls-1" d="M173.51,17.72H174l-.75,3.52h-.52Z"/><path class="cls-1" d="M174.44,18.67H175l-.54,2.57h-.53Zm.12-.72a.31.31,0,1,1,.3.31A.31.31,0,0,1,174.56,18Z"/><path class="cls-1" d="M175.16,20.15a1.39,1.39,0,0,1,1.31-1.53,1,1,0,0,1,1.06,1.09,2.31,2.31,0,0,1,0,.37h-1.83v.09a.6.6,0,0,0,.59.68.67.67,0,0,0,.65-.41h.5a1.19,1.19,0,0,1-1.17.86A1,1,0,0,1,175.16,20.15ZM177,19.7s0-.05,0-.07a.53.53,0,0,0-.57-.57.76.76,0,0,0-.72.64Z"/><path class="cls-1" d="M178.21,18.67h.5l-.08.4h0a.93.93,0,0,1,.83-.45.76.76,0,0,1,.81.75,1.2,1.2,0,0,1,0,.31l-.33,1.56h-.52l.31-1.47a1.12,1.12,0,0,0,0-.24.45.45,0,0,0-.5-.45.74.74,0,0,0-.72.63l-.32,1.53h-.53Z"/><path class="cls-1" d="M180.72,20.73a1.06,1.06,0,0,1,0-.24l.3-1.37h-.38l.09-.43h.38l.13-.64h.52l-.13.64h.54l-.09.43h-.54l-.27,1.25a.75.75,0,0,0,0,.2c0,.18.12.25.32.25h.18l-.09.43a1.2,1.2,0,0,1-.28,0C181,21.27,180.72,21.09,180.72,20.73Z"/><path class="cls-1" d="M354.06,15.57h2a2.5,2.5,0,0,1,2.67,2.8h0a2.52,2.52,0,0,1-2.67,2.83h-2ZM356,20.44c1.19,0,1.85-.73,1.85-2.06h0c0-1.32-.67-2.05-1.85-2.05h-1v4.12Z"/><path class="cls-1" d="M359.28,20h0c0-.72.55-1.16,1.53-1.21l1.11-.07v-.31c0-.45-.29-.73-.81-.73a.78.78,0,0,0-.86.56v0h-.8v0c.05-.71.67-1.25,1.68-1.25s1.64.53,1.64,1.35V21.2h-.85v-.65h0a1.41,1.41,0,0,1-1.26.73A1.25,1.25,0,0,1,359.28,20Zm1.6.57a1,1,0,0,0,1-.94v-.32l-1,.07c-.51,0-.79.25-.79.6h0C360.13,20.37,360.43,20.6,360.88,20.6Z"/><path class="cls-1" d="M363.82,20.12V17.77h-.58v-.68h.58V16h.87v1.07h.77v.68h-.77v2.3c0,.42.19.54.54.54h.23v.65a2.46,2.46,0,0,1-.43,0C364.22,21.28,363.82,20.94,363.82,20.12Z"/><path class="cls-1" d="M365.93,20h0c0-.72.55-1.16,1.52-1.21l1.12-.07v-.31c0-.45-.29-.73-.82-.73a.78.78,0,0,0-.85.56v0h-.8v0c.06-.71.68-1.25,1.69-1.25s1.64.53,1.64,1.35V21.2h-.85v-.65h0a1.41,1.41,0,0,1-1.26.73A1.25,1.25,0,0,1,365.93,20Zm1.6.57a1,1,0,0,0,1-.94v-.32l-1,.07c-.51,0-.79.25-.79.6h0C366.78,20.37,367.07,20.6,367.53,20.6Z"/><path class="cls-1" d="M376.59,17.68a1.33,1.33,0,0,1,1.48,1.41,1.92,1.92,0,0,1-1.9,2.11h-1.43l.74-3.52Zm-1.2,3h.73a1.41,1.41,0,0,0,1.38-1.54.9.9,0,0,0-1-1h-.54Z"/><path class="cls-1" d="M378.2,20.53c0-.51.4-.81,1.07-.84l.73,0,0-.16a.41.41,0,0,0,0-.11c0-.22-.17-.36-.47-.36a.52.52,0,0,0-.56.36h-.52a1,1,0,0,1,1.12-.81c.57,0,.95.3.95.75a1.36,1.36,0,0,1,0,.21l-.35,1.66h-.5l.07-.31h0a.94.94,0,0,1-.76.36A.74.74,0,0,1,378.2,20.53Zm1.66-.23.06-.26-.64,0c-.35,0-.56.16-.56.4s.18.34.44.34A.7.7,0,0,0,379.86,20.3Z"/><path class="cls-1" d="M381,20.69a1.06,1.06,0,0,1,0-.24l.3-1.37h-.38l.09-.43h.38l.13-.64h.52l-.13.64h.54l-.09.43h-.54l-.27,1.25a.75.75,0,0,0,0,.2c0,.18.12.25.32.25h.18l-.09.43a2.4,2.4,0,0,1-.28,0C381.28,21.23,381,21.05,381,20.69Z"/><path class="cls-1" d="M382.45,20.11a1.39,1.39,0,0,1,1.31-1.53,1,1,0,0,1,1.06,1.09,2.4,2.4,0,0,1,0,.37H383a.28.28,0,0,0,0,.09.6.6,0,0,0,.59.68.66.66,0,0,0,.65-.41h.5a1.18,1.18,0,0,1-1.16.86A1,1,0,0,1,382.45,20.11Zm1.85-.45a.17.17,0,0,0,0-.07.53.53,0,0,0-.56-.57.76.76,0,0,0-.72.64Z"/><rect class="cls-2" x="130.39" y="11.34" width="289.13" height="34.02" rx="7.09"/><path class="cls-4" d="M227.54,100h44.59a5.67,5.67,0,0,1,5.67,5.67v44.59a0,0,0,0,1,0,0H227.54a0,0,0,0,1,0,0V100A0,0,0,0,1,227.54,100Z"/><path class="cls-3" d="M193.9,116.6h44.59a5.67,5.67,0,0,1,5.67,5.67v11.34a0,0,0,0,1,0,0H193.9a0,0,0,0,1,0,0v-17A0,0,0,0,1,193.9,116.6Z" transform="translate(93.93 344.14) rotate(-90)"/><path class="cls-1" d="M217.09,145v-1h3.09v-1.6H221V145Z"/><path class="cls-1" d="M219,141.83h0a1.91,1.91,0,1,1,0-3.82h0a1.91,1.91,0,1,1,0,3.82Zm0-2.82h0c-.74,0-1.19.36-1.19.91s.45.91,1.19.91h0c.74,0,1.19-.36,1.19-.91S219.76,139,219,139Z"/><path class="cls-1" d="M217.89,136.39v1.07h-.8v-3.13h.8v1.07H221v1Z"/><path class="cls-1" d="M217.09,133.48v-2.66h.8v1.67h.76v-1.57h.74v1.57h.79v-1.67H221v2.66Z"/><path class="cls-1" d="M217.09,128.32v-1.57a1.71,1.71,0,0,1,1.91-1.86h0a1.75,1.75,0,0,1,2,1.86v1.57Zm3.08-1.44c0-.65-.39-1-1.16-1h0c-.73,0-1.12.37-1.12,1v.45h2.28Z"/><path class="cls-1" d="M217.09,124v-1H221v1Z"/><path class="cls-1" d="M219,122.07h0a1.8,1.8,0,0,1-2-1.89,1.63,1.63,0,0,1,1.31-1.74h0v1h0a.74.74,0,0,0-.5.75c0,.56.42.89,1.17.89h0c.77,0,1.21-.36,1.21-.93a.7.7,0,0,0-.63-.78h-.05v.71h-.7v-1.66h.49a1.6,1.6,0,0,1,1.71,1.76A1.81,1.81,0,0,1,219,122.07Z"/><path class="cls-1" d="M217.09,117.46v-1H221v1Z"/><path class="cls-1" d="M217.89,114.55v1.07h-.8V112.5h.8v1.07H221v1Z"/><path class="cls-1" d="M217.09,111.07v-1.2l3.88-1.3v1l-.85.24v1.26l.85.24v1Zm2.32-.17V110l-1.47.42v0Z"/><path class="cls-1" d="M217.09,107.75v-1h3.09v-1.6H221v2.58Z"/><path class="cls-1" d="M125.62,104.2h.81l2.9,4.17h0V104.2h.87v5.64h-.81l-2.9-4.18h0v4.18h-.87Z"/><path class="cls-1" d="M131,105.42h0a1.24,1.24,0,1,1,2.47,0h0a1.24,1.24,0,1,1-2.47,0Zm1.83,0h0c0-.47-.24-.74-.59-.74s-.6.27-.6.74h0c0,.47.23.74.6.74S132.8,105.89,132.8,105.42Z"/><path class="cls-1" d="M135.81,104.2h.81l2.9,4.17h0V104.2h.87v5.64h-.81l-2.9-4.18h0v4.18h-.87Z"/><path class="cls-1" d="M141.45,104.2H145V105h-2.65v1.78h2.42v.74h-2.42v2.36h-.87Z"/><path class="cls-1" d="M150.12,109.84l.75-3.52h.56l-.75,3.52Z"/><path class="cls-1" d="M151.81,107.26h.5l-.08.4h0a1,1,0,0,1,.84-.45.75.75,0,0,1,.8.75,1.91,1.91,0,0,1,0,.32l-.33,1.56H153l.31-1.47a1.2,1.2,0,0,0,0-.24.45.45,0,0,0-.51-.45.73.73,0,0,0-.71.62l-.33,1.54h-.52Z"/><path class="cls-1" d="M154.75,107.26l.24,2h0l1.05-2h.58l-1.45,2.58h-.58l-.38-2.58Z"/><path class="cls-1" d="M159,108.35a1.43,1.43,0,0,1-1.36,1.54,1.06,1.06,0,0,1-1.11-1.14,1.43,1.43,0,0,1,1.36-1.54A1.06,1.06,0,0,1,159,108.35Zm-.53,0c0-.42-.23-.7-.59-.7s-.82.46-.82,1.06c0,.42.23.7.59.7S158.43,109,158.43,108.37Z"/><path class="cls-1" d="M159.7,107.26h.53l-.55,2.58h-.53Zm.11-.72a.31.31,0,0,1,.31-.31.3.3,0,0,1,.3.31.31.31,0,0,1-.3.32A.32.32,0,0,1,159.81,106.54Z"/><path class="cls-1" d="M162.8,108.12v0h-.5a.51.51,0,0,0-.56-.49c-.47,0-.8.44-.8,1.06,0,.42.23.68.57.68a.66.66,0,0,0,.64-.45h.5a1.16,1.16,0,0,1-1.15.92,1,1,0,0,1-1.09-1.12,1.41,1.41,0,0,1,1.35-1.56A.94.94,0,0,1,162.8,108.12Z"/><path class="cls-1" d="M163,108.74a1.39,1.39,0,0,1,1.3-1.53,1,1,0,0,1,1.06,1.1,1.58,1.58,0,0,1,0,.37h-1.82a.25.25,0,0,0,0,.08c0,.42.23.68.59.68a.66.66,0,0,0,.65-.41h.51a1.18,1.18,0,0,1-1.17.86A1,1,0,0,1,163,108.74Zm1.85-.45v-.07a.52.52,0,0,0-.56-.56.76.76,0,0,0-.72.63Z"/><path class="cls-1" d="M168.42,108.88h-.74l-.32,1h-.42l.32-1h-.57l.13-.43h.57l.27-.78h-.59l.13-.43h.59l.31-.92h.42l-.31.92H169l.31-.92h.42l-.31.92h.6l-.13.43h-.61l-.26.78h.62l-.13.43h-.63l-.31,1h-.42Zm.14-.41.28-.83h-.77l-.28.83Z"/><path class="cls-1" d="M354.06,57.69h0a2.65,2.65,0,1,1,5.28,0h0a2.88,2.88,0,0,1-1,2.39l.75,1h-.89l-.5-.67a2.87,2.87,0,0,1-1,.17C355.07,60.6,354.06,59.48,354.06,57.69Zm3.14,2.07-.7-.95h.9l.44.58a2.28,2.28,0,0,0,.6-1.7h0c0-1.31-.67-2.13-1.74-2.13s-1.75.82-1.75,2.13h0c0,1.31.68,2.13,1.75,2.13A2,2,0,0,0,357.2,59.76Z"/><path class="cls-1" d="M360.31,59.42V57.07h-.59v-.68h.59V55.32h.86v1.07h.77v.68h-.77v2.3c0,.42.19.54.55.54h.22v.65a2.33,2.33,0,0,1-.43,0C360.7,60.59,360.31,60.24,360.31,59.42Z"/><path class="cls-1" d="M362.36,58.45h0c0-1.31.68-2.13,1.71-2.13a1.39,1.39,0,0,1,1.29.77h0V54.87h.85V60.5h-.85v-.69h0a1.39,1.39,0,0,1-1.29.78C363,60.59,362.36,59.76,362.36,58.45Zm3,0h0c0-.86-.45-1.41-1.08-1.41s-1.08.54-1.08,1.41h0c0,.87.41,1.41,1.08,1.41S365.38,59.31,365.38,58.45Z"/><path class="cls-1" d="M374.05,60.88l-.2-.4a1.84,1.84,0,0,1-.53.08A1.42,1.42,0,0,1,371.83,59a2,2,0,0,1,1.86-2.1,1.41,1.41,0,0,1,1.49,1.52,2.14,2.14,0,0,1-.91,1.82l.3.61Zm-.41-.86-.3-.59h.5l.19.34a1.58,1.58,0,0,0,.59-1.29.94.94,0,0,0-.94-1A1.43,1.43,0,0,0,372.39,59a.94.94,0,0,0,.94,1.05A1.65,1.65,0,0,0,373.64,60Z"/><path class="cls-1" d="M375.55,60a1.12,1.12,0,0,1,0-.24l.3-1.36h-.38l.08-.44H376l.13-.64h.52l-.13.64H377l-.09.44h-.54l-.27,1.24a.88.88,0,0,0,0,.2c0,.18.13.25.33.25h.17l-.08.43a1.33,1.33,0,0,1-.28,0C375.84,60.53,375.55,60.35,375.55,60Z"/><path class="cls-1" d="M376.71,61.41l.08-.44.24,0a.53.53,0,0,0,.49-.37l.07-.14-.39-2.55h.52l.25,2h0l1.06-2h.57l-1.55,2.77c-.31.58-.61.74-1.05.74A1.26,1.26,0,0,1,376.71,61.41Z"/></svg>