<svg xmlns="http://www.w3.org/2000/svg" viewBox="0 0 1397.9 320"><defs><style>.cls-1{fill:#fff;}.cls-2{fill:#9cd4f0;}</style></defs><g id="Layer_2" data-name="Layer 2"><g id="Layer_1-2" data-name="Layer 1"><polygon class="cls-1" points="0 231.22 0 0 159.74 145.47 159.3 21.76 203.89 21.76 203.89 244.71 46.52 106.13 46.88 231.22 0 231.22"/><path class="cls-1" d="M462.35,128c0,64.46-51.84,116.7-115.79,116.7S230.77,192.42,230.77,128s51.84-116.7,115.79-116.7S462.35,63.51,462.35,128ZM346.55,54.49c-40.26,0-72.9,32.9-72.9,73.47s32.64,73.48,72.9,73.48,72.91-32.9,72.91-73.48S386.82,54.49,346.55,54.49Z"/><path class="cls-2" d="M404.08,128a57.52,57.52,0,1,1-57.52-57.51A57.52,57.52,0,0,1,404.08,128Z"/><path class="cls-2" d="M968.9,116A38.26,38.26,0,1,1,930.64,77.7,38.26,38.26,0,0,1,968.9,116Z"/><polygon class="cls-1" points="449.58 19.14 570.23 242.09 690.45 19.14 634.22 19.14 570.02 141.98 505.97 19.14 449.58 19.14"/><path class="cls-1" d="M1219.27,110.34h162.34l-46.34,75.78s62.63-1.75,62.63,69.07c0,67.76-85.8,64.79-85.8,64.79h-97.92l10.93-46.86,90.49-.44s28.85-.44,28.85-28.41c0-24.05-34.53-24.05-34.53-24.05l-53.77.44,38-67.76-74.76-.44Z"/><polygon class="cls-1" points="874.15 230.84 753.49 7.89 633.27 230.84 689.5 230.84 753.71 108 817.75 230.84 874.15 230.84"/><polygon class="cls-1" points="1245.28 230.84 1124.63 7.89 1004.41 230.84 1060.64 230.84 1124.84 108 1188.89 230.84 1245.28 230.84"/></g></g></svg>